PathFileType	4	(X/Y/Z)	15_2_103_p1_0-574_filt_butterworth.trc
DataRate	CameraRate	NumFrames	NumMarkers	Units	OrigDataRate	OrigDataStartFrame	OrigNumFrames
54.0	54.0	6	27	m	54.0	358	574
Frame#	Time	RHip			RKnee			RAnkle			RBigToe			RSmallToe			RHeel			LHip			LKnee			LAnkle			LBigToe			LSmallToe			LHeel			Neck			Head			Nose			RShoulder			RElbow			RWrist			RThumb			RIndex			RPinky			LShoulder			LElbow			LWrist			LThumb			LIndex			LPinky			
		X1	Y1	Z1	X2	Y2	Z2	X3	Y3	Z3	X4	Y4	Z4	X5	Y5	Z5	X6	Y6	Z6	X7	Y7	Z7	X8	Y8	Z8	X9	Y9	Z9	X10	Y10	Z10	X11	Y11	Z11	X12	Y12	Z12	X13	Y13	Z13	X14	Y14	Z14	X15	Y15	Z15	X16	Y16	Z16	X17	Y17	Z17	X18	Y18	Z18	X19	Y19	Z19	X20	Y20	Z20	X21	Y21	Z21	X22	Y22	Z22	X23	Y23	Z23	X24	Y24	Z24	X25	Y25	Z25	X26	Y26	Z26	X27	Y27	Z27	
358	6.62962962962963	0.22406965218596125	0.35407737409284934	1.0798463535439942	0.2177989932099559	0.20903597209182626	1.4858988703381255	0.23606477302714535	0.19143892298862147	1.9389631447530156	0.2367517612439755	-0.0009660509451061591	1.8710613339384403	0.29296173327221214	0.06044147677894217	1.9127095255900122	0.2352629997646386	0.24511634602535726	2.022914695779989	0.049770410737140246	0.2714641624579973	1.0442065428554386	0.08819206204459426	0.1855336109492835	1.473904063045655	0.0644332837646219	0.19881882290527303	1.9642521996816527	0.07693567403188703	0.02082898807304178	1.9055843074204215	0.025595190673738236	0.08078839770464079	1.945723638411896	0.07714232124594633	0.22986075078604684	2.031420206049095	0.15317040405437593	0.3857292117145119	0.49274226635719254	0.18107576024860178	0.38611630678455866	0.25230460351290374	0.2316582549612281	0.3240890501859233	0.3606868100551112	0.2841283599873934	0.48623431086229574	0.598545161328742	0.4046386887349489	0.696407322436547	0.8122642476847464	0.3862498564899943	0.4045673976125369	0.7233104459111549	0.3288404105223721	0.2758287952343277	0.6700368267606025	0.35060978756829075	0.2394784572281009	0.6571407632007764	0.3516768161370881	0.22603970728618386	0.701248915605207	0.04275689418484994	0.29049484747833815	0.5374286285906756	-0.08564094668828022	0.1214761139879081	0.6660603017935833	0.1172982827522836	0.12197416100069697	0.6494174869530354	0.22436803015743753	0.1605956149601828	0.631314280558783	0.23646275788477095	0.1354756832055536	0.6294591801976553	0.1937894153750896	0.0908886926574712	0.6599246647656015
359	6.648148148148148	0.22359690992446388	0.35440524078792396	1.0788403287396	0.21783952894471792	0.2090304822405944	1.4843693376701705	0.23514422285439193	0.19513779498554132	1.9427119437224813	0.2372335901216212	-0.0010658103480063917	1.8727772058372163	0.29299902698527414	0.06033566704465154	1.91257906520924	0.23343490944937167	0.24082869414677627	2.019621567829878	0.052731975265574646	0.2763798035039153	1.044507460166694	0.08841194882064507	0.18531588167219917	1.4741974568108573	0.06388464136628712	0.19770060948889362	1.963346299179769	0.07633015872938356	0.023930101374649335	1.9088469077074806	0.02561068614235848	0.0804534126579927	1.9454276790208858	0.0734480380429243	0.23007262352192898	2.032922493524656	0.15532766424744232	0.3845686493916446	0.49247596541440286	0.18140874316129113	0.3864814473946862	0.2519346123910351	0.23611928983518388	0.32915021388567045	0.3609043180544072	0.2845533602691597	0.48609644401358093	0.5954464216371195	0.39596516941076165	0.7052617786257313	0.8291615515993007	0.3913435691399722	0.41805776154888624	0.7277137066058262	0.33950316345486053	0.29488950688370996	0.6752528819489335	0.36306620093297737	0.2637006595192605	0.66641829441631	0.3602384920152624	0.2373951637603965	0.7085984863766485	0.04639989097180935	0.29021197720079006	0.5361793106397102	-0.08493545758020518	0.12341008226451802	0.6622714732389837	0.11959989104703334	0.12446395532870821	0.6495588546908596	0.22762481268457746	0.17015068725278557	0.6364724856249526	0.23635398631327226	0.14823160696962168	0.6351001494460705	0.19858694727711612	0.1058819952305572	0.6679838142051345
360	6.666666666666667	0.22392255746100553	0.35501604755356864	1.0775983828010034	0.21787501958811784	0.20918524899980961	1.4859698176663416	0.23388569794272057	0.20021571422292395	1.9478523683181364	0.23757465705631653	-0.001083965236712942	1.8739112659028507	0.293124039291747	0.06016593202240267	1.9122078861389271	0.23217591746895688	0.2374420052027837	2.0175946677207177	0.05490286625101517	0.28010607094812706	1.04556448226765	0.08883257610189364	0.18506582078653938	1.4762209900057264	0.06388774952108886	0.19791095283030302	1.9641246055167905	0.0762704912914665	0.02818937342204646	1.9118814388155214	0.025668346082471122	0.08003410222476591	1.945012393021091	0.06963574552737722	0.23358252898164428	2.035900382455024	0.15915326462228419	0.37912939758416175	0.49256050718793887	0.18280775924301026	0.38597260671200756	0.25146337847637507	0.2400074033081238	0.3292155710494825	0.36038431796425363	0.2851017392452562	0.48646905397857776	0.5917946512130304	0.3762882097276509	0.7134668483045354	0.8468776641635218	0.39393709610815075	0.42218499405817883	0.7290987969898899	0.3494203289620323	0.3089424011285854	0.676957998632852	0.3738448047304973	0.28697673360956794	0.673421020264951	0.3699820426141727	0.2532020819883221	0.7156102665010069	0.05086361055618015	0.2897660750952911	0.5349709073959031	-0.08352964961991076	0.12496775859919025	0.6639709000718303	0.12039106754750764	0.12528907630873812	0.6493188612225915	0.2269177330987103	0.1752655461280988	0.6394539264546527	0.23512330658694056	0.1614970603072549	0.6404500596884889	0.20114192407702974	0.1184459440849728	0.6744387238295926
361	6.685185185185185	0.22505804135058458	0.35511509097914595	1.078160884844609	0.2181019191902082	0.2091670536388081	1.4899676795045431	0.2329825103268982	0.20390848577110848	1.9515696304367955	0.23766742313710645	-0.0011103721910158705	1.874078106601254	0.2932121130006289	0.06016151845120982	1.9119707569166071	0.23179085722854081	0.23611875314007302	2.016948939917122	0.055598135470225664	0.2811722400575363	1.047518133542456	0.08928031580907633	0.18475650684351919	1.478910338554848	0.0645437072519823	0.19950257422036183	1.966007907614802	0.07641082827912798	0.03128538947739084	1.9140519407723446	0.025683824972074807	0.07989385555681443	1.9448170007238623	0.06742469792937168	0.24028329678382296	2.0398891405259523	0.16383909089615986	0.371698965664773	0.49248124328278664	0.18546875564373355	0.3845336729508376	0.25101405677187566	0.24364249059987364	0.3272627312444384	0.35915309321971844	0.28663474498874747	0.48883366319791793	0.5912518059534989	0.3576548678432147	0.7105712616035819	0.8576633615283002	0.39429300801695116	0.41791619900754373	0.7285151181931933	0.35634343932593465	0.31631123922292936	0.6764992191771971	0.3804789953692377	0.29970563539945605	0.6755907111450162	0.37884845749727775	0.26536563741392283	0.7205503623315206	0.055229774995235646	0.28891922910647283	0.5349421846030538	-0.0811691089803562	0.1260397697279874	0.6704842421484132	0.12131564227222515	0.12338784793322863	0.6501747316513531	0.22414080085581012	0.17647751710718745	0.6396874855356336	0.2345764822639062	0.1691530210772856	0.6409676120993896	0.20119697420829302	0.12032822523019612	0.6738879844030343
362	6.703703703703703	0.22697611146070754	0.35464482489846844	1.0809847658239284	0.21866425396310515	0.2089172830355745	1.4942579588528908	0.23270629568663995	0.20506980476686215	1.952732346628312	0.2376132883997882	-0.0011250322415451506	1.8737938878918965	0.2932277737288176	0.060304593594513484	1.9119717889707712	0.23184621027967872	0.23617880328078192	2.017051167389609	0.05553598568627058	0.28066898535900225	1.0498584635056463	0.0895034053372473	0.1845669153043006	1.480776233669816	0.06601916762572503	0.2030186727138662	1.9681121882114536	0.07619291408996581	0.032309199825684025	1.9149392310736997	0.02569573306930693	0.07990618571814638	1.9447598409258529	0.06650409286182384	0.24843348788056388	2.0441488012385234	0.16790488585195218	0.3679676112238751	0.4923976911734347	0.18893387047808166	0.38393850951187325	0.25077831726178323	0.24751372722656062	0.32652752827445175	0.3584603699949612	0.2898295892441186	0.49410803360629885	0.5953668324713796	0.3487807749733342	0.6936957309108666	0.8654154944373418	0.3930622939788331	0.41246453813203	0.7297928079031762	0.36063846195202953	0.32171806698839267	0.6767813836768741	0.38427369960047497	0.30286944426893403	0.6747068449968854	0.38558697337110337	0.26901199974422696	0.723012059148388	0.05827744279456576	0.2879454407074222	0.5367603555854027	-0.07736845426200198	0.12903786480244592	0.6817323376024165	0.12356119971788918	0.1236165137991396	0.6542270928304303	0.22121377463453776	0.17689894912545895	0.6382015375104029	0.23478814743679588	0.17092299948105288	0.6371019095553352	0.20033290059425496	0.1147732150348618	0.6674692208347606
363	6.722222222222222	0.2286206443006617	0.35402874152923725	1.0849986761632384	0.21940207115909374	0.20861147391380808	1.4974440435770284	0.23276041938164732	0.20486367837118552	1.9525534041418087	0.23753291163043735	-0.0008350732017285128	1.8738429270053807	0.2931729501324969	0.060628260378477614	1.9122403626846276	0.23194814909147093	0.23749952638070418	2.018157924297329	0.055337069319968075	0.27980698512416113	1.0519873780603475	0.08956831648595473	0.18465570968719042	1.4815538388373615	0.0677918887977973	0.20742998370593063	1.9693629054915895	0.07504892285876452	0.03214864955972205	1.9149204472849888	0.025741730243919438	0.0799327632694567	1.9446988956654028	0.06601367060752857	0.25564628799656736	2.0482325456430157	0.1704370130254572	0.3692813944953802	0.49285344828669	0.19290239150292487	0.3864160725773508	0.2511600140801995	0.2518060350746769	0.327925271300752	0.3597839596207385	0.29385071002958124	0.4998366837594006	0.6013237716166596	0.34867875267317716	0.6654573874873758	0.8732196282143663	0.39078236579185405	0.4100538341886164	0.7358568228069129	0.364151422499499	0.32659365509471444	0.6778669816337448	0.38706312330788073	0.30184842829715547	0.673138257085275	0.39046015025773767	0.26748035417884375	0.72520343099993	0.05963944830095122	0.2872384189741331	0.5398532012912491	-0.07272288744789547	0.13562495680256131	0.6977253283939031	0.1269706165023053	0.13061254384150872	0.6618816141013285	0.21956362632413262	0.17838141284366793	0.6366455124994792	0.23491166295742205	0.17018644992711934	0.6331587090181616	0.200595003901717	0.11280589281606115	0.6610048006218807
